<svg width="34" height="36" viewBox="0 0 34 36" fill="none" xmlns="http://www.w3.org/2000/svg">
<path d="M18.1611 33.6344L18.1713 33.6407L18.1817 33.6468C19.5976 34.4699 21.2106 34.8696 22.9945 34.8696C24.7779 34.8696 26.38 34.4701 27.7707 33.6422L27.7772 33.6384L27.7837 33.6344C29.1514 32.7877 30.2282 31.6443 31.0065 30.2175C31.79 28.7811 32.1734 27.177 32.1734 25.4254V2.53039V1.66082H31.3039H27.0608H26.1912V2.53039V26C26.1912 26.6491 26.0369 27.2168 25.7376 27.7234L25.73 27.7362L25.7228 27.7494C25.4403 28.2673 25.0586 28.6708 24.5699 28.9733C24.0904 29.2702 23.5715 29.4177 22.9945 29.4177C22.4199 29.4177 21.8823 29.2713 21.3672 28.9686C20.8757 28.6627 20.4755 28.2522 20.163 27.7234C19.8636 27.2168 19.7093 26.6491 19.7093 26V10.5746C19.7093 8.82296 19.3259 7.21888 18.5424 5.7825C17.7609 4.34983 16.6636 3.21806 15.2612 2.40118C13.8424 1.54504 12.2114 1.13043 10.3978 1.13043C8.61044 1.13043 6.99494 1.54647 5.57859 2.40118C4.17616 3.21805 3.07885 4.34982 2.29739 5.7825L3.04689 6.19132L2.29739 5.7825C1.51391 7.21888 1.13043 8.82296 1.13043 10.5746V33.4696V34.3392H2H6.24309H7.11266V33.4696V10C7.11266 9.34395 7.25583 8.77117 7.52981 8.26366C7.84115 7.74111 8.23883 7.33481 8.72632 7.03138C9.23601 6.73196 9.78752 6.58227 10.3978 6.58227C11.0111 6.58227 11.5651 6.73348 12.077 7.03592C12.5989 7.34436 13.0092 7.75466 13.3177 8.27662C13.617 8.78322 13.7713 9.35088 13.7713 10V25.4254C13.7713 27.177 14.1548 28.7811 14.9383 30.2175C15.7165 31.6443 16.7934 32.7877 18.1611 33.6344Z" stroke="url(#paint0_linear_2_5)" stroke-width="1.73913"/>
<defs>
<linearGradient id="paint0_linear_2_5" x1="34.1415" y1="0.320465" x2="0.0714877" y2="36.2321" gradientUnits="userSpaceOnUse">
<stop stop-color="#5EEAD4"/>
<stop offset="1" stop-color="#0D9488"/>
</linearGradient>
</defs>
</svg>
